<svg width="22" height="22" viewBox="0 0 22 22" fill="none" xmlns="http://www.w3.org/2000/svg">
<path d="M11 2.0625C7.58398 2.0625 4.8125 4.70035 4.8125 7.94922C4.8125 11.6875 8.9375 17.6116 10.4521 19.6578C10.515 19.7441 10.5974 19.8144 10.6926 19.8629C10.7878 19.9114 10.8932 19.9366 11 19.9366C11.1068 19.9366 11.2122 19.9114 11.3074 19.8629C11.4026 19.8144 11.485 19.7441 11.5479 19.6578C13.0625 17.6125 17.1875 11.6905 17.1875 7.94922C17.1875 4.70035 14.416 2.0625 11 2.0625Z" stroke="#8C8C8C" stroke-linecap="round" stroke-linejoin="round"/>
<path d="M11 10.3125C12.1391 10.3125 13.0625 9.38909 13.0625 8.25C13.0625 7.11091 12.1391 6.1875 11 6.1875C9.86091 6.1875 8.9375 7.11091 8.9375 8.25C8.9375 9.38909 9.86091 10.3125 11 10.3125Z" stroke="#8C8C8C" stroke-linecap="round" stroke-linejoin="round"/>
</svg>
