<svg width="22" height="22" viewBox="0 0 22 22" fill="none" xmlns="http://www.w3.org/2000/svg">
<path d="M20.8272 0H1.93194C1.2841 0 0.759277 0.52482 0.759277 1.17266V20.0688C0.759277 20.7158 1.2841 21.2406 1.93194 21.2406H12.1053V13.0152H9.33694V9.80962H12.1053V7.44572C12.1053 4.70214 13.7807 3.20822 16.2286 3.20822C17.4013 3.20822 18.4084 3.29583 18.7023 3.33477V6.20226L17.0048 6.20314C15.6737 6.20314 15.4162 6.83593 15.4162 7.76344V9.8105H18.5908L18.1775 13.0161H15.4162V21.2406H20.829C21.4751 21.2406 21.9999 20.7158 21.9999 20.0679V1.17266C21.9999 0.52482 21.4751 0 20.8272 0V0Z" fill="#8C8C8C"/>
</svg>
