<svg xmlns="http://www.w3.org/2000/svg" width="30" height="30" viewBox="0 0 30 30" fill="none">
  <path d="M3.36859 2.79736L24.9563 24.3851C25.3659 24.7947 25.596 25.3503 25.596 25.9296C25.596 26.5089 25.3659 27.0645 24.9563 27.4741V27.4741C24.5466 27.8836 23.991 28.1136 23.4118 28.1136C22.8325 28.1136 22.277 27.8836 21.8672 27.4741L16.5938 22.1099C16.2487 21.7594 16.0551 21.2874 16.0547 20.7956V20.4716C16.0548 20.2232 16.0055 19.9774 15.9097 19.7482C15.814 19.5191 15.6737 19.3113 15.4969 19.1368L14.8161 18.5081C14.5849 18.2948 14.3039 18.1431 13.9987 18.067C13.6936 17.9908 13.3742 17.9926 13.07 18.0722V18.0722C12.5902 18.1974 12.086 18.195 11.6074 18.0652C11.1289 17.9353 10.6926 17.6826 10.3418 17.3321L5.33617 12.3259C2.36664 9.35635 1.27387 4.87217 3.36859 2.79736Z" stroke="black" stroke-width="2" stroke-linejoin="round"/>
  <path class="activeSvg" d="M23.4375 1.875L18.9111 6.40137C18.5628 6.7496 18.2865 7.16304 18.098 7.61806C17.9095 8.07309 17.8125 8.56079 17.8125 9.05332V9.92402C17.8125 10.0472 17.7883 10.1692 17.7411 10.283C17.694 10.3968 17.6248 10.5002 17.5377 10.5873L16.875 11.25" stroke="black" stroke-width="2" stroke-linecap="round" stroke-linejoin="round"/>
  <path class="activeSvg" d="M18.75 13.125L19.4127 12.4623C19.4998 12.3752 19.6032 12.306 19.717 12.2589C19.8308 12.2117 19.9528 12.1875 20.076 12.1875H20.9467C21.4392 12.1875 21.9269 12.0905 22.3819 11.902C22.837 11.7135 23.2504 11.4372 23.5986 11.0889L28.125 6.5625" stroke="black" stroke-width="2" stroke-linecap="round" stroke-linejoin="round"/>
  <path class="activeSvg" d="M25.7812 4.21875L21.0938 8.90625" stroke="black" stroke-width="2" stroke-linecap="round" stroke-linejoin="round"/>
  <path class="activeSvg" d="M11.7187 21.5625L5.87577 27.4383C5.43625 27.8777 4.84022 28.1245 4.21874 28.1245C3.59726 28.1245 3.00122 27.8777 2.56171 27.4383V27.4383C2.12232 26.9988 1.87549 26.4027 1.87549 25.7813C1.87549 25.1598 2.12232 24.5637 2.56171 24.1242L7.49999 19.2188" stroke="black" stroke-width="2" stroke-linecap="round" stroke-linejoin="round"/>
</svg>
