<svg width="25" height="25" viewBox="0 0 25 25" fill="none" xmlns="http://www.w3.org/2000/svg">
<path d="M10.6494 8.1626C10.6494 8.79736 10.6494 9.4126 10.8496 9.98877C8.74512 12.4595 3.18848 18.9878 2.6709 19.4858C2.56803 19.5781 2.48574 19.691 2.42938 19.8172C2.37301 19.9434 2.34384 20.0801 2.34375 20.2183C2.34375 20.6333 2.59766 21.0337 2.8125 21.2583C3.13477 21.5952 4.51172 22.8696 4.76562 22.6255C5.51758 21.8931 5.66895 21.6978 5.97656 21.395C6.44043 20.9409 5.92773 20.0132 6.08887 19.6372C6.25 19.2612 6.4209 19.188 6.69922 19.1294C6.97754 19.0708 7.4707 19.271 7.85645 19.2759C8.26172 19.2808 8.48145 19.1099 8.78418 18.8267C9.02832 18.6021 9.2041 18.3921 9.20898 18.0649C9.21875 17.6255 8.58398 17.0444 9.05762 16.5806C9.53125 16.1167 10.2148 16.8833 10.7178 16.8247C11.2207 16.7661 11.8311 16.0679 11.8945 15.77C11.958 15.4722 11.3232 14.7056 11.4209 14.271C11.4551 14.1245 11.7529 13.7827 11.9775 13.7339C12.2021 13.6851 13.1982 14.0708 13.4229 14.022C13.6963 13.9634 14.0137 13.6753 14.2725 13.5142C15.0293 13.8413 15.7178 13.9731 16.6016 13.9731C19.9463 13.9731 22.6562 11.3657 22.6562 8.15283C22.6562 4.93994 19.9463 2.34375 16.6016 2.34375C13.2568 2.34375 10.6494 4.94971 10.6494 8.1626ZM19.5312 7.03125C19.5312 7.34028 19.4396 7.64238 19.2679 7.89933C19.0962 8.15628 18.8522 8.35655 18.5667 8.47481C18.2812 8.59307 17.967 8.62402 17.6639 8.56373C17.3608 8.50344 17.0824 8.35462 16.8639 8.1361C16.6454 7.91758 16.4966 7.63917 16.4363 7.33608C16.376 7.03298 16.4069 6.71882 16.5252 6.43331C16.6435 6.1478 16.8437 5.90377 17.1007 5.73208C17.3576 5.56039 17.6597 5.46875 17.9688 5.46875C18.3832 5.46875 18.7806 5.63337 19.0736 5.9264C19.3666 6.21942 19.5312 6.61685 19.5312 7.03125Z" stroke="#8C8C8C" stroke-width="1.5" stroke-linejoin="round"/>
</svg>
