<svg width="25" height="25" viewBox="0 0 25 25" fill="none" xmlns="http://www.w3.org/2000/svg">
<path d="M9.91382 20.5302C9.91382 22.9988 11.9151 25 14.3836 25H21.1207V14.013C21.1211 13.0337 20.7884 12.0837 20.1768 11.319L15.9483 6.03455H9.91382V20.5302Z" fill="#FEC9A3"/>
<path d="M5.60327 0H14.2239C15.1761 0 15.948 0.771973 15.948 1.72412V17.2414C15.948 18.1935 15.1761 18.9655 14.2239 18.9655H5.60327C4.65112 18.9655 3.87915 18.1935 3.87915 17.2414V1.72412C3.8791 0.771973 4.65107 0 5.60327 0Z" fill="#4398D1"/>
<path d="M3.87915 16.6897V17.2414C3.87915 18.1936 4.65112 18.9655 5.60327 18.9655H14.224C15.1761 18.9655 15.9481 18.1936 15.9481 17.2414V4.53882C13.3843 9.81558 9.13862 14.0901 3.87915 16.6897Z" fill="#3E8CC7"/>
<path d="M14.6552 18.9656H9.91382V20.2587H14.6552V18.9656Z" fill="#F7BB8F"/>
<path d="M13.362 0H11.2068V18.9655H13.362V0Z" fill="#87CED9"/>
<path d="M6.46558 1.72412H5.60352V7.32759H6.46558V1.72412Z" fill="#126099"/>
<path d="M8.62061 1.72412H7.75854V5.17241H8.62061V1.72412Z" fill="#126099"/>
<path d="M8.62065 14.2241H6.03442V16.8104H8.62065V14.2241Z" fill="#D9D9D9"/>
<path d="M17.6724 15.9483L11.8793 9.79316C11.2857 9.16514 10.2956 9.13672 9.66723 9.73022C9.65732 9.7397 9.6474 9.74917 9.63793 9.75869C9.0642 10.3341 9.02499 11.2526 9.5474 11.875L13.3621 16.3793V17.8707C13.3616 20.0858 14.7362 22.0681 16.8103 22.8448H17.6724V15.9483Z" fill="#FEC9A3"/>
</svg>
