<svg width="30" height="30" viewBox="0 0 30 30" fill="none" xmlns="http://www.w3.org/2000/svg">
<path d="M15.3613 11.3418C14.6068 11.2673 13.8477 11.4278 13.188 11.8014C12.5282 12.175 12 12.7434 11.6758 13.4287C11.3515 14.1141 11.247 14.8829 11.3766 15.6299C11.5062 16.3769 11.8635 17.0657 12.3996 17.6018C12.9357 18.1379 13.6244 18.4952 14.3715 18.6248C15.1185 18.7544 15.8873 18.6499 16.5727 18.3256C17.258 18.0013 17.8264 17.4732 18.1999 16.8134C18.5735 16.1536 18.734 15.3945 18.6595 14.64C18.5746 13.7942 18.1998 13.0038 17.5987 12.4027C16.9976 11.8016 16.2072 11.4268 15.3613 11.3418V11.3418ZM24.2159 15.0014C24.2135 15.4012 24.1842 15.8003 24.128 16.196L26.7257 18.2336C26.8388 18.3273 26.9151 18.4582 26.9408 18.6028C26.9666 18.7475 26.9403 18.8966 26.8665 19.0236L24.4089 23.2756C24.3343 23.4015 24.2176 23.4969 24.0795 23.5452C23.9414 23.5934 23.7907 23.5914 23.6539 23.5394L21.074 22.5005C20.9317 22.4439 20.7776 22.4234 20.6255 22.4409C20.4734 22.4585 20.328 22.5135 20.2023 22.6011C19.8086 22.8722 19.3948 23.1131 18.9646 23.3216C18.8294 23.3873 18.7124 23.4854 18.624 23.607C18.5356 23.7287 18.4786 23.8702 18.4578 24.0192L18.0711 26.7709C18.0457 26.9162 17.9707 27.0482 17.8587 27.1443C17.7468 27.2404 17.605 27.2947 17.4575 27.2978H12.5424C12.3973 27.2953 12.2574 27.2435 12.1458 27.1508C12.0341 27.0582 11.9574 26.9303 11.9281 26.7882L11.542 24.0404C11.5203 23.8898 11.4618 23.747 11.3715 23.6245C11.2813 23.502 11.1622 23.4037 11.0249 23.3383C10.5952 23.1309 10.1828 22.8893 9.79177 22.616C9.66656 22.5289 9.52165 22.4743 9.37008 22.4571C9.21852 22.44 9.06507 22.4608 8.92356 22.5177L6.34419 23.556C6.2075 23.6081 6.05682 23.6102 5.91871 23.5621C5.78059 23.514 5.66389 23.4186 5.58917 23.2929L3.13162 19.0409C3.05773 18.9138 3.03133 18.7647 3.05711 18.62C3.08289 18.4753 3.15918 18.3445 3.2724 18.2508L5.46793 16.527C5.58821 16.4315 5.68275 16.3075 5.74295 16.1662C5.80316 16.0249 5.82713 15.8709 5.81269 15.718C5.792 15.4784 5.77936 15.2393 5.77936 14.9997C5.77936 14.7601 5.79143 14.5245 5.81269 14.2901C5.82555 14.1381 5.80041 13.9854 5.73952 13.8455C5.67863 13.7057 5.58392 13.5832 5.46391 13.4891L3.26952 11.7653C3.15814 11.6711 3.08346 11.5408 3.05856 11.397C3.03366 11.2533 3.06014 11.1054 3.13334 10.9793L5.59089 6.72726C5.66553 6.60141 5.78218 6.50595 5.92031 6.45771C6.05843 6.40946 6.20916 6.41151 6.34591 6.46352L8.92585 7.50239C9.06813 7.55903 9.22223 7.5795 9.37436 7.56195C9.52648 7.5444 9.67188 7.48939 9.79752 7.40183C10.1913 7.13069 10.605 6.88982 11.0352 6.68129C11.1704 6.61555 11.2874 6.51753 11.3758 6.39587C11.4642 6.27422 11.5213 6.13267 11.542 5.98373L11.9287 3.23198C11.9541 3.08666 12.0292 2.95466 12.1411 2.85856C12.253 2.76245 12.3949 2.7082 12.5424 2.70508H17.4575C17.6025 2.70759 17.7424 2.75944 17.8541 2.85208C17.9657 2.94472 18.0425 3.07264 18.0717 3.21475L18.4578 5.96247C18.4795 6.11305 18.5381 6.25594 18.6283 6.37844C18.7185 6.50094 18.8376 6.59925 18.975 6.66462C19.4047 6.87203 19.817 7.11356 20.2081 7.38689C20.3333 7.47401 20.4782 7.5286 20.6298 7.54576C20.7813 7.56291 20.9348 7.54208 21.0763 7.48515L23.6556 6.44685C23.7923 6.3948 23.943 6.39266 24.0811 6.4408C24.2192 6.48894 24.3359 6.58428 24.4107 6.71002L26.8682 10.962C26.9421 11.0891 26.9685 11.2382 26.9427 11.3829C26.9169 11.5276 26.8407 11.6584 26.7274 11.7521L24.5319 13.4759C24.4111 13.5711 24.316 13.6949 24.2553 13.8362C24.1946 13.9775 24.1702 14.1318 24.1843 14.2849C24.2032 14.5228 24.2159 14.7618 24.2159 15.0014Z" stroke="white" stroke-linecap="round" stroke-linejoin="round"/>
</svg>
