<svg width="30" height="30" viewBox="0 0 30 30" fill="none" xmlns="http://www.w3.org/2000/svg">
<path d="M18.1444 7.78769L11.8556 3.76429C11.6054 3.63933 11.3291 3.57588 11.0495 3.57923C10.7699 3.58257 10.4951 3.6526 10.248 3.7835L4.04707 7.94417C3.906 8.0189 3.78796 8.13067 3.70563 8.26745C3.62331 8.40424 3.57982 8.56087 3.57983 8.72052V24.9613C3.57982 25.1128 3.61899 25.2617 3.69353 25.3936C3.76807 25.5255 3.87546 25.6359 4.00525 25.714C4.13505 25.7921 4.28285 25.8354 4.43429 25.8395C4.58573 25.8436 4.73567 25.8085 4.86954 25.7376L10.2403 22.2353C10.4894 22.1033 10.7666 22.0332 11.0485 22.0309C11.3304 22.0286 11.6088 22.0942 11.86 22.2221L18.0016 26.2301C18.2506 26.357 18.5264 26.4227 18.8059 26.4216C19.0854 26.4206 19.3606 26.3528 19.6087 26.2241L25.9463 22.0546C26.0891 21.9805 26.2088 21.8686 26.2923 21.7311C26.3759 21.5937 26.4201 21.4359 26.4201 21.275V5.03862C26.4201 4.88712 26.381 4.7382 26.3064 4.60631C26.2319 4.47441 26.1245 4.36404 25.9947 4.28591C25.8649 4.20778 25.7171 4.16454 25.5657 4.1604C25.4142 4.15626 25.2643 4.19135 25.1304 4.26227L19.7498 7.76847C19.5029 7.89901 19.2286 7.96884 18.9494 7.97219C18.6702 7.97553 18.3942 7.91228 18.1444 7.78769Z" stroke="white" stroke-linecap="round" stroke-linejoin="round"/>
<path d="M18.9531 7.97217V26.4201" stroke="white" stroke-linecap="round" stroke-linejoin="round"/>
<path d="M11.0469 3.57983V22.0278" stroke="white" stroke-linecap="round" stroke-linejoin="round"/>
</svg>
