<svg width="28" height="28" viewBox="0 0 28 28" fill="none" xmlns="http://www.w3.org/2000/svg">
<path d="M24.664 20.4532C23.7956 19.5782 21.6923 18.3013 20.6718 17.7867C19.3429 17.1173 19.2335 17.0626 18.189 17.8386C17.4923 18.3565 17.0291 18.8192 16.2137 18.6452C15.3983 18.4713 13.6264 17.4908 12.0749 15.9442C10.5235 14.3977 9.48604 12.5744 9.31159 11.7617C9.13713 10.9491 9.60745 10.4913 10.1204 9.79298C10.8434 8.80861 10.7887 8.64455 10.1707 7.31564C9.68893 6.28205 8.37479 4.19845 7.49651 3.33439C6.55698 2.40634 6.55698 2.57041 5.95159 2.82197C5.45873 3.02934 4.98589 3.2814 4.53901 3.57501C3.66401 4.15634 3.17838 4.63923 2.83877 5.36494C2.49917 6.09064 2.34659 7.79197 4.10042 10.9781C5.85424 14.1642 7.08471 15.7933 9.63151 18.333C12.1783 20.8727 14.1367 22.2382 16.9996 23.8438C20.5411 25.8274 21.8996 25.4407 22.6274 25.1017C23.3553 24.7626 23.8404 24.2813 24.4228 23.4063C24.7172 22.9602 24.9698 22.4879 25.1775 21.9954C25.4296 21.3922 25.5937 21.3922 24.664 20.4532Z" stroke="white" stroke-miterlimit="10"/>
</svg>
