<svg width="25" height="25" viewBox="0 0 25 25" fill="none" xmlns="http://www.w3.org/2000/svg">
<path d="M12.4834 5.46875C8.67778 5.46875 4.77397 7.67139 1.70073 12.0767C1.61301 12.2038 1.56494 12.3541 1.56259 12.5085C1.56024 12.6629 1.60373 12.8146 1.68755 12.9443C4.04887 16.6406 7.90044 19.5312 12.4834 19.5312C17.0166 19.5312 20.9473 16.6318 23.313 12.9272C23.3949 12.8001 23.4384 12.652 23.4384 12.5007C23.4384 12.3495 23.3949 12.2014 23.313 12.0742C20.9419 8.41211 16.9825 5.46875 12.4834 5.46875Z" stroke="#8C8C8C" stroke-width="1.5" stroke-linecap="round" stroke-linejoin="round"/>
<path d="M12.5 16C14.433 16 16 14.433 16 12.5C16 10.567 14.433 9 12.5 9C10.567 9 9 10.567 9 12.5C9 14.433 10.567 16 12.5 16Z" stroke="#8C8C8C" stroke-width="1.5" stroke-miterlimit="10"/>
<rect x="0.5" y="0.5" width="24" height="24" stroke="white"/>
</svg>
