<svg width="20" height="20" viewBox="0 0 20 20" fill="none" xmlns="http://www.w3.org/2000/svg">
<g clip-path="url(#clip0)">
<path d="M0.9455 9.99386C0.9455 8.41551 0.933451 6.83314 0.949516 5.25479C0.961564 4.12625 1.38728 3.14229 2.16641 2.32701C3.02989 1.42337 4.09819 0.949466 5.35123 0.94545C7.88944 0.937418 10.4317 0.941434 12.9699 0.941434C13.3996 0.941434 13.8293 0.94545 14.2591 0.941434C16.4358 0.925369 18.3074 2.50774 18.6568 4.6604C18.6969 4.91342 18.717 5.17045 18.721 5.42347C18.725 8.49985 18.7291 11.5722 18.721 14.6486C18.717 16.7249 17.215 18.5483 15.1908 18.9619C14.7049 19.0623 14.2109 19.0583 13.7169 19.0583C11.4196 19.0583 9.12642 19.0583 6.82918 19.0583C6.25486 19.0583 5.67654 19.0744 5.10624 19.0423C3.88533 18.974 2.86924 18.4599 2.05396 17.5523C1.44752 16.8776 1.0941 16.0783 0.977629 15.1787C0.949516 14.9699 0.941483 14.757 0.941483 14.5482C0.941483 13.0261 0.941483 11.508 0.9455 9.99386Z" stroke="#8C8C8C" stroke-width="1.5" stroke-miterlimit="10"/>
<path d="M5.28296 9.99758C5.28698 7.48346 7.32317 5.44727 9.83327 5.44727C12.3554 5.44727 14.3916 7.49149 14.3876 10.0177C14.3836 12.5237 12.3353 14.5519 9.80917 14.5479C7.31112 14.5439 5.28296 12.4996 5.28296 9.99758Z" stroke="#8C8C8C" stroke-width="1.5" stroke-miterlimit="10"/>
<path d="M15.1005 2.7002C15.7116 2.7002 16.2116 3.19366 16.2148 3.80804C16.2181 4.41915 15.7116 4.92242 15.0972 4.92242C14.4861 4.92242 13.9894 4.42242 13.9861 3.81131C13.9861 3.19039 14.4763 2.7002 15.1005 2.7002Z" fill="#8C8C8C"/>
</g>
<defs>
<clipPath id="clip0">
<rect width="19.2593" height="20" fill="white"/>
</clipPath>
</defs>
</svg>
