<svg width="22" height="22" viewBox="0 0 22 22" fill="none" xmlns="http://www.w3.org/2000/svg">
<path d="M11.0484 1.91361C8.21266 1.91361 7.8768 1.9244 6.75693 1.97549C5.72146 2.02275 5.15912 2.19577 4.78485 2.34117C4.28916 2.53383 3.93534 2.764 3.56372 3.13562C3.1921 3.50724 2.96192 3.86107 2.76931 4.35675C2.62386 4.73102 2.45085 5.29336 2.40359 6.32879C2.3525 7.4487 2.3417 7.78457 2.3417 10.6203C2.3417 13.4561 2.3525 13.7919 2.40359 14.9118C2.45085 15.9473 2.62386 16.5096 2.76931 16.8839C2.96192 17.3796 3.1921 17.7334 3.56372 18.105C3.93534 18.4766 4.28916 18.7068 4.78485 18.8994C5.15912 19.0449 5.72146 19.2179 6.75693 19.2652C7.87663 19.3162 8.21249 19.327 11.0484 19.327C13.8843 19.327 14.2202 19.3162 15.3399 19.2652C16.3754 19.2179 16.9377 19.0449 17.3119 18.8994C17.8077 18.7068 18.1615 18.4766 18.5331 18.105C18.9047 17.7334 19.1349 17.3796 19.3275 16.8839C19.473 16.5096 19.646 15.9473 19.6932 14.9119C19.7443 13.7919 19.7551 13.4561 19.7551 10.6203C19.7551 7.78457 19.7443 7.4487 19.6932 6.32883C19.646 5.29336 19.473 4.73102 19.3275 4.35675C19.1349 3.86107 18.9047 3.50724 18.5331 3.13562C18.1615 2.764 17.8077 2.53383 17.3119 2.34117C16.9377 2.19577 16.3754 2.02275 15.34 1.97549C14.22 1.9244 13.8842 1.91361 11.0484 1.91361ZM11.0484 0C13.9327 0 14.2944 0.0122256 15.4271 0.0639106C16.5576 0.115511 17.3296 0.295017 18.0051 0.557573C18.7035 0.828982 19.2958 1.19213 19.8862 1.78254C20.4766 2.37295 20.8398 2.96522 21.1112 3.6636C21.3737 4.33917 21.5532 5.11116 21.6048 6.24161C21.6565 7.37433 21.6687 7.736 21.6687 10.6203C21.6687 13.5046 21.6565 13.8663 21.6048 14.999C21.5532 16.1295 21.3737 16.9015 21.1112 17.577C20.8398 18.2754 20.4766 18.8677 19.8862 19.4581C19.2958 20.0485 18.7035 20.4117 18.0051 20.6831C17.3296 20.9456 16.5576 21.1251 15.4271 21.1767C14.2944 21.2284 13.9327 21.2406 11.0484 21.2406C8.1641 21.2406 7.80243 21.2284 6.6697 21.1767C5.53926 21.1251 4.76727 20.9456 4.0917 20.6831C3.39332 20.4117 2.80105 20.0485 2.21064 19.4581C1.62022 18.8677 1.25708 18.2754 0.98567 17.577C0.723114 16.9015 0.543608 16.1295 0.492008 14.999C0.440323 13.8663 0.428097 13.5046 0.428097 10.6203C0.428097 7.736 0.440323 7.37433 0.492008 6.24161C0.543608 5.11116 0.723114 4.33917 0.98567 3.6636C1.25708 2.96522 1.62022 2.37295 2.21064 1.78254C2.80105 1.19213 3.39332 0.828982 4.0917 0.557573C4.76727 0.295017 5.53926 0.115511 6.6697 0.0639106C7.80243 0.0122256 8.1641 0 11.0484 0ZM11.0484 5.16664C14.0604 5.16664 16.5021 7.60835 16.5021 10.6203C16.5021 13.6323 14.0604 16.074 11.0484 16.074C8.03645 16.074 5.59473 13.6323 5.59473 10.6203C5.59473 7.60835 8.03645 5.16664 11.0484 5.16664ZM11.0484 14.1604C13.0036 14.1604 14.5885 12.5755 14.5885 10.6203C14.5885 8.66519 13.0036 7.0802 11.0484 7.0802C9.09329 7.0802 7.5083 8.66519 7.5083 10.6203C7.5083 12.5755 9.09329 14.1604 11.0484 14.1604ZM4.10485 4.95117C4.10485 5.65503 4.67541 6.22563 5.37927 6.22563C6.08313 6.22563 6.65373 5.65503 6.65373 4.95117C6.65373 4.24731 6.08313 3.67675 5.37927 3.67675C4.67541 3.67675 4.10485 4.24731 4.10485 4.95117Z" fill="#8C8C8C"/>
</svg>
