<svg width="25" height="25" viewBox="0 0 25 25" fill="none" xmlns="http://www.w3.org/2000/svg">
<path fill-rule="evenodd" clip-rule="evenodd" d="M12.196 19.694C12.0992 19.791 11.9843 19.868 11.8577 19.9205C11.7312 19.973 11.5955 20 11.4585 20C11.3215 20 11.1859 19.973 11.0593 19.9205C10.9328 19.868 10.8179 19.791 10.7211 19.694L4.47182 13.4447C4.37483 13.348 4.29787 13.233 4.24536 13.1065C4.19285 12.9799 4.16583 12.8443 4.16583 12.7073C4.16583 12.5703 4.19285 12.4346 4.24536 12.3081C4.29787 12.1816 4.37483 12.0666 4.47182 11.9699L10.7211 5.72057C10.9167 5.52499 11.182 5.41512 11.4585 5.41512C11.7351 5.41512 12.0004 5.52499 12.196 5.72057C12.3915 5.91614 12.5014 6.1814 12.5014 6.45798C12.5014 6.73457 12.3915 6.99983 12.196 7.1954L6.68199 12.7073L12.196 18.2192C12.293 18.3159 12.3699 18.4309 12.4224 18.5574C12.4749 18.6839 12.502 18.8196 12.502 18.9566C12.502 19.0936 12.4749 19.2292 12.4224 19.3558C12.3699 19.4823 12.293 19.5973 12.196 19.694Z" fill="black"/>
<path fill-rule="evenodd" clip-rule="evenodd" d="M20.833 12.707C20.833 12.9832 20.7233 13.2481 20.5279 13.4435C20.3326 13.6388 20.0677 13.7485 19.7915 13.7485L6.2513 13.7485C5.97506 13.7485 5.71014 13.6388 5.51481 13.4435C5.31948 13.2481 5.20975 12.9832 5.20975 12.707C5.20975 12.4307 5.31948 12.1658 5.51481 11.9705C5.71014 11.7752 5.97506 11.6654 6.2513 11.6654L19.7915 11.6654C20.0677 11.6654 20.3326 11.7752 20.5279 11.9705C20.7233 12.1658 20.833 12.4307 20.833 12.707Z" fill="black"/>
</svg>
